<svg xmlns="http://www.w3.org/2000/svg" xmlns:xlink="http://www.w3.org/1999/xlink" width="500" zoomAndPan="magnify" viewBox="0 0 375 374.999991" height="500" preserveAspectRatio="xMidYMid meet" version="1.0"><defs><clipPath id="6dcee7e584"><path d="M 18.574219 19.335938 L 67.410156 19.335938 L 67.410156 183.179688 L 18.574219 183.179688 Z M 18.574219 19.335938 " clip-rule="nonzero"/></clipPath><clipPath id="245e3bcc8e"><path d="M 78.515625 19.335938 L 127.351562 19.335938 L 127.351562 183.179688 L 78.515625 183.179688 Z M 78.515625 19.335938 " clip-rule="nonzero"/></clipPath><clipPath id="edaf8abea6"><path d="M 134.1875 19.335938 L 183.019531 19.335938 L 183.019531 183.179688 L 134.1875 183.179688 Z M 134.1875 19.335938 " clip-rule="nonzero"/></clipPath><clipPath id="3539f49ef9"><path d="M 192.578125 19.335938 L 356.421875 19.335938 L 356.421875 68.167969 L 192.578125 68.167969 Z M 192.578125 19.335938 " clip-rule="nonzero"/></clipPath><clipPath id="5682f7d40f"><path d="M 192.578125 76.839844 L 356.421875 76.839844 L 356.421875 125.671875 L 192.578125 125.671875 Z M 192.578125 76.839844 " clip-rule="nonzero"/></clipPath><clipPath id="9cbcadc8a0"><path d="M 192.578125 134.34375 L 356.421875 134.34375 L 356.421875 183.179688 L 192.578125 183.179688 Z M 192.578125 134.34375 " clip-rule="nonzero"/></clipPath><clipPath id="74df1f9fee"><path d="M 18.574219 188.421875 L 67.410156 188.421875 L 67.410156 352.265625 L 18.574219 352.265625 Z M 18.574219 188.421875 " clip-rule="nonzero"/></clipPath><clipPath id="2c2ec77cac"><path d="M 132.160156 188.421875 L 183.019531 188.421875 L 183.019531 352.265625 L 132.160156 352.265625 Z M 132.160156 188.421875 " clip-rule="nonzero"/></clipPath><clipPath id="04f7e837fc"><path d="M 307.589844 191.820312 L 356.425781 191.820312 L 356.425781 355.664062 L 307.589844 355.664062 Z M 307.589844 191.820312 " clip-rule="nonzero"/></clipPath><clipPath id="a4381c4b50"><path d="M 198 191 L 316 191 L 316 355 L 198 355 Z M 198 191 " clip-rule="nonzero"/></clipPath><clipPath id="c54de7e758"><path d="M 309.25 191.820312 L 315.984375 196.527344 L 205.445312 354.679688 L 198.710938 349.976562 Z M 309.25 191.820312 " clip-rule="nonzero"/></clipPath><clipPath id="b26de3844a"><path d="M 51 190 L 144 190 L 144 353 L 51 353 Z M 51 190 " clip-rule="nonzero"/></clipPath><clipPath id="bd8ef3c6f4"><path d="M 143.070312 347.390625 L 133.691406 352.261719 L 51.984375 194.996094 L 61.363281 190.125 Z M 143.070312 347.390625 " clip-rule="nonzero"/></clipPath><clipPath id="e65ccb7184"><path d="M 257.34375 270.339844 L 350.539062 270.339844 L 350.539062 281.460938 L 257.34375 281.460938 Z M 257.34375 270.339844 " clip-rule="nonzero"/></clipPath></defs><g clip-path="url(#6dcee7e584)"><path fill="#000000" d="M 18.574219 19.335938 L 67.410156 19.335938 L 67.410156 183.195312 L 18.574219 183.195312 Z M 18.574219 19.335938 " fill-opacity="1" fill-rule="nonzero"/></g><g clip-path="url(#245e3bcc8e)"><path fill="#000000" d="M 78.515625 19.335938 L 127.351562 19.335938 L 127.351562 183.195312 L 78.515625 183.195312 Z M 78.515625 19.335938 " fill-opacity="1" fill-rule="nonzero"/></g><g clip-path="url(#edaf8abea6)"><path fill="#000000" d="M 134.1875 19.335938 L 183.019531 19.335938 L 183.019531 183.195312 L 134.1875 183.195312 Z M 134.1875 19.335938 " fill-opacity="1" fill-rule="nonzero"/></g><g clip-path="url(#3539f49ef9)"><path fill="#000000" d="M 356.421875 19.335938 L 356.421875 68.167969 L 192.5625 68.167969 L 192.5625 19.335938 Z M 356.421875 19.335938 " fill-opacity="1" fill-rule="nonzero"/></g><g clip-path="url(#5682f7d40f)"><path fill="#000000" d="M 356.421875 76.839844 L 356.421875 125.671875 L 192.5625 125.671875 L 192.5625 76.839844 Z M 356.421875 76.839844 " fill-opacity="1" fill-rule="nonzero"/></g><g clip-path="url(#9cbcadc8a0)"><path fill="#000000" d="M 356.421875 134.34375 L 356.421875 183.179688 L 192.5625 183.179688 L 192.5625 134.34375 Z M 356.421875 134.34375 " fill-opacity="1" fill-rule="nonzero"/></g><g clip-path="url(#74df1f9fee)"><path fill="#000000" d="M 18.574219 188.421875 L 67.410156 188.421875 L 67.410156 352.28125 L 18.574219 352.28125 Z M 18.574219 188.421875 " fill-opacity="1" fill-rule="nonzero"/></g><g clip-path="url(#2c2ec77cac)"><path fill="#000000" d="M 132.160156 188.421875 L 183.019531 188.421875 L 183.019531 352.324219 L 132.160156 352.324219 Z M 132.160156 188.421875 " fill-opacity="1" fill-rule="nonzero"/></g><g clip-path="url(#04f7e837fc)"><path fill="#000000" d="M 307.589844 191.820312 L 356.425781 191.820312 L 356.425781 355.679688 L 307.589844 355.679688 Z M 307.589844 191.820312 " fill-opacity="1" fill-rule="nonzero"/></g><g clip-path="url(#a4381c4b50)"><g clip-path="url(#c54de7e758)"><path fill="#000000" d="M 309.25 191.820312 L 315.984375 196.527344 L 205.445312 354.679688 L 198.710938 349.972656 Z M 309.25 191.820312 " fill-opacity="1" fill-rule="nonzero"/></g></g><g clip-path="url(#b26de3844a)"><g clip-path="url(#bd8ef3c6f4)"><path fill="#000000" d="M 143.070312 347.390625 L 133.691406 352.261719 L 51.996094 195.011719 L 61.371094 190.140625 Z M 143.070312 347.390625 " fill-opacity="1" fill-rule="nonzero"/></g></g><g clip-path="url(#e65ccb7184)"><path fill="#000000" d="M 350.539062 270.339844 L 350.539062 281.460938 L 257.34375 281.460938 L 257.34375 270.339844 Z M 350.539062 270.339844 " fill-opacity="1" fill-rule="nonzero"/></g></svg>